# xmcd CD database file
#
# Track frame offsets:
#	150
#	30452
#	55861
#	85131
#	118303
#	142890
#	168839
#	195578
#	221680
#	254058
#	286452
#
# Disc length: 4167 seconds
#
# Revision: 1
# Processed by: cddbd v1.5.2PL0 Copyright (c) Steve Scherf et al.
# Submitted via: CDex 1.77
#
DISCID=a010450b
DTITLE=Karunesh - Path of Compassion
DYEAR=2006
DGENRE=New Age
TTITLE0=Oasis Moon
TTITLE1=Dazzled By the Light
TTITLE2=Shruti's Song
TTITLE3=Zensual
TTITLE4=Stargazing
TTITLE5=Way of the Winding Valley
TTITLE6=Mount Kailash
TTITLE7=Return of the Rains
TTITLE8=Inner Journey
TTITLE9=Breathing Silence
TTITLE10=Blessings Rain
EXTD=YEAR: 2006
EXTT0=
EXTT1=
EXTT2=
EXTT3=
EXTT4=
EXTT5=
EXTT6=
EXTT7=
EXTT8=
EXTT9=
EXTT10=
PLAYORDER=
